<svg width="29" height="31" viewBox="0 0 29 31" fill="none" xmlns="http://www.w3.org/2000/svg">
<path d="M5.73524 4.00647C6.5151 4.55845 13.9211 11.0845 14.9286 12.1752C15.9387 13.2632 17.7999 14.8321 18.8965 15.8236C19.993 16.8152 21.9762 18.4452 22.5245 18.941C23.0727 19.4368 25.3982 21.5953 26.1557 22.25C26.9181 22.8995 27.4385 23.2994 27.8128 23.7243C28.1895 24.1514 28.3487 24.6002 28.0173 25.119C27.7312 25.5617 28.0395 25.3137 27.5451 25.8613C27.0509 26.4041 27.0392 26.254 26.7066 26.9552C26.3739 27.6564 26.4358 27.5117 26.0349 27.8256C25.634 28.1394 25.5327 28.1772 25.5327 28.1772C25.5327 28.1772 25.0351 28.6076 22.1214 25.8609C18.9905 22.9129 18.1615 22.3341 15.4825 19.9143C12.8058 17.4968 8.80783 13.7503 7.30801 12.4899C5.81066 11.2269 5.05007 10.4501 3.47009 9.01933C1.88764 7.59118 1.51578 7.16368 1.38768 6.78408C1.25943 6.40929 1.25943 6.40929 1.67464 5.95025C2.08985 5.49121 2.3708 5.27676 2.55835 4.85953C2.74837 4.43968 3.61148 4.12315 3.9325 3.70366C4.45235 3.03144 5.29994 3.69733 5.73524 4.00647Z" fill="white"/>
<path d="M22.8742 2.77766C22.1478 3.43217 15.3878 10.9369 14.49 12.1614C13.5893 13.3837 11.8827 15.1983 10.8846 16.3348C9.88638 17.4714 8.06358 19.363 7.56449 19.9313C7.0654 20.4996 4.95448 22.9658 4.26174 23.7206C3.56346 24.4707 3.0821 24.9392 2.75063 25.4139C2.41708 25.8911 2.30496 26.3621 2.69466 26.8403C3.03048 27.2479 2.69323 27.0386 3.25017 27.5247C3.80645 28.006 3.80215 27.8539 4.21269 28.515C4.62322 29.176 4.5453 29.0388 4.98299 29.3023C5.42069 29.5658 5.52679 29.5907 5.52679 29.5907C5.52679 29.5907 6.07446 29.9587 8.71467 26.8263C11.5522 23.4637 12.3252 22.776 14.7642 20.002C17.201 17.2306 20.8263 12.9549 22.2019 11.4965C23.5747 10.0359 24.2575 9.15819 25.6955 7.5185C27.1363 5.88111 27.465 5.40408 27.5532 5.00651C27.6421 4.61376 27.6421 4.61376 27.1744 4.20637C26.7067 3.79899 26.4006 3.61986 26.1668 3.22515C25.9302 2.82812 25.0265 2.62145 24.658 2.24165C24.0619 1.63372 23.2795 2.4113 22.8742 2.77766Z" fill="white"/>
</svg>
