<svg width="34" height="28" viewBox="0 0 34 28" fill="none" xmlns="http://www.w3.org/2000/svg">
<path d="M2.25733 1.24867C3.20542 1.13043 13.075 0.955879 14.5544 1.08188C16.0339 1.20429 18.4663 1.1078 19.9447 1.10065C21.4231 1.09349 23.9867 0.959978 24.7258 0.956402C25.465 0.952826 28.6378 0.978718 29.6386 0.951458C30.6395 0.917004 31.2935 0.861391 31.8564 0.922745C32.4226 0.984161 32.8427 1.20825 32.9478 1.81481C33.0351 2.33466 33.0955 1.94363 33.0997 2.68135C33.1008 3.41542 32.9909 3.31252 33.2181 4.0546C33.4452 4.79667 33.3934 4.64813 33.309 5.15024C33.2245 5.65235 33.1752 5.74854 33.1752 5.74854C33.1752 5.74854 33.0979 6.40192 29.0943 6.33823C24.7943 6.27236 23.7919 6.40394 20.1819 6.4235C16.5751 6.44312 11.0965 6.37225 9.13907 6.45282C7.1817 6.5298 6.09626 6.46905 3.96475 6.47785C1.83318 6.49026 1.2703 6.42531 0.919745 6.23136C0.572317 6.04108 0.572317 6.04108 0.569405 5.42212C0.566494 4.80316 0.629365 4.45536 0.48653 4.02078C0.343752 3.58261 0.767693 2.76687 0.721891 2.24063C0.652511 1.39369 1.72743 1.3139 2.25733 1.24867Z" fill="black"/>
<path d="M31.5416 16.151C30.598 16.288 20.7575 16.6433 19.2798 16.5424C17.8022 16.4451 15.3779 16.5869 13.9035 16.6209C12.4292 16.6548 9.8746 16.8365 9.13743 16.8535C8.40026 16.8705 5.23547 16.9016 4.23777 16.9474C3.24006 17.0004 2.58871 17.0685 2.02626 17.0166C1.46063 16.9646 1.03788 16.7451 0.923108 16.1324C0.827452 15.6072 0.773682 16.0045 0.757324 15.2571C0.744145 14.5133 0.855421 14.6155 0.616637 13.8677C0.377852 13.1199 0.431967 13.2695 0.507906 12.7591C0.583844 12.2488 0.631442 12.1505 0.631442 12.1505C0.631442 12.1505 0.697755 11.487 4.69188 11.4791C8.98151 11.4681 9.97916 11.3167 13.5792 11.2316C17.1761 11.1464 22.6414 11.1192 24.5923 11.0021C26.5433 10.8887 27.6268 10.9307 29.7525 10.8832C31.8783 10.8321 32.4407 10.8877 32.7935 11.0779C33.1432 11.2644 33.1432 11.2644 33.1563 11.8915C33.1694 12.5187 33.1124 12.8722 33.262 13.31C33.4117 13.7514 33.0023 14.5857 33.0566 15.1181C33.1398 15.975 32.069 16.0753 31.5416 16.151Z" fill="black"/>
<path d="M31.9871 20.7766C31.0144 20.6782 20.914 20.7124 19.4037 20.8699C17.8933 21.0239 15.4027 20.9788 13.8903 21.0029C12.3778 21.0271 9.75204 20.9476 8.9958 20.9597C8.23956 20.9717 4.99464 21.0649 3.97019 21.0588C2.94544 21.0455 2.27506 21.0036 1.70074 21.077C1.12316 21.1505 0.698927 21.3839 0.606556 21.9937C0.530173 22.5164 0.45868 22.1259 0.472735 22.8651C0.489899 23.6005 0.59973 23.4951 0.385833 24.2433C0.171936 24.9915 0.221231 24.8416 0.320105 25.3428C0.418978 25.844 0.471817 25.9393 0.471817 25.9393C0.471817 25.9393 0.56714 26.5922 4.6611 26.4436C9.05807 26.2866 10.0868 26.3971 13.7801 26.3403C17.4701 26.2835 23.0727 26.0965 25.077 26.1358C27.0812 26.1714 28.1901 26.0876 30.3707 26.0513C32.5515 26.0185 33.1257 25.9415 33.4794 25.7398C33.8301 25.5418 33.8301 25.5418 33.8177 24.9217C33.8053 24.3016 33.7323 23.9545 33.8676 23.5161C34.0027 23.0742 33.5488 22.2659 33.5825 21.7378C33.6324 20.8879 32.5308 20.8307 31.9871 20.7766Z" fill="black"/>
</svg>
